<svg id="vuesax_bulk_trend-down" data-name="vuesax/bulk/trend-down" xmlns="http://www.w3.org/2000/svg" width="24" height="24" viewBox="0 0 24 24">
  <g id="trend-down">
    <g id="trend-down-2" data-name="trend-down">
      <path id="Vector" d="M14.19,0H5.81C2.17,0,0,2.17,0,5.81v8.37C0,17.83,2.17,20,5.81,20h8.37c3.64,0,5.81-2.17,5.81-5.81V5.81C20,2.17,17.83,0,14.19,0Z" transform="translate(2 2)" fill="#FF5733" opacity="0.4"/>
      <path id="Vector-2" data-name="Vector" d="M9.762,3.493a.7.7,0,1,0-1.4,0v.18L5.642.952a.688.688,0,0,0-.56-.2.665.665,0,0,0-.51.31l-1.02,1.52L1.193.2A.706.706,0,0,0,.2.2a.706.706,0,0,0,0,.99l2.98,2.98a.688.688,0,0,0,.56.2.665.665,0,0,0,.51-.31l1.02-1.52,2.11,2.11H7.2a.7.7,0,1,0,0,1.4h1.86A.857.857,0,0,0,9.333,6a.707.707,0,0,0,.38-.38.646.646,0,0,0,.05-.27Z" transform="translate(7.118 8.977)" fill="#FF5733"/>
    </g>
    <path id="Vector-3" data-name="Vector" d="M0,0H24V24H0Z" fill="none" opacity="0"/>
  </g>
</svg>
